<svg xmlns="http://www.w3.org/2000/svg" viewBox="0 0 512 512" role="img" aria-labelledby="title">
  <title id="title">Upload</title>
  <path
    d="M171 395H93c-42 0-76-34-76-76 0-29 17-55 42-68-4-12-5-25-2-38 7-38 40-66 79-66 12 0 24 3 35 8 25-61 85-101 153-101 86 0 158 66 165 151 45 11 79 52 79 101 0 57-46 104-104 104h-78"
    fill="none"
    stroke="currentColor"
    stroke-linecap="round"
    stroke-linejoin="round"
    stroke-width="28"
  />
  <path
    d="M256 453V220m0 0-72 72m72-72 72 72"
    fill="none"
    stroke="currentColor"
    stroke-linecap="round"
    stroke-linejoin="round"
    stroke-width="28"
  />
</svg>
